# xmcd CD database file
# Copyright (C) 1995 Ti Kan
#
# Track frame offsets:
#	150
#	12972
#	38768
#
# Disc length: 867 seconds
#
# Revision: 1
# Processed by: cddbd v1.4PL0 Copyright (c) Steve Scherf et al.
# Submitted via: NotifyCDPlayer(CDDB) 1.60beta5_freedb
#
DISCID=18036103
DTITLE=Hairy Diamond - Givin Up
DYEAR=1900
DGENRE=
TTITLE0=Radio Edit
TTITLE1=Supakings Remix
TTITLE2=Scanty Sandwich Remix
EXTD=
EXTT0=
EXTT1=
EXTT2=
PLAYORDER=
